<svg t="1619947691821" class="icon" viewBox="0 0 1024 1024" version="1.1" xmlns="http://www.w3.org/2000/svg" p-id="4003" width="200" height="200"><path d="M792.792 438.164c41.23 0 74.644 33.415 74.644 74.59v347.999c0 41.23-33.415 74.59-74.59 74.59H245.921c-41.176 0-74.59-33.415-74.59-74.59V512.755c0-41.23 33.414-74.59 74.59-74.59h546.923m0-74.591H245.922a149.18 149.18 0 0 0-149.18 149.18v347.999a149.18 149.18 0 0 0 149.126 149.127h546.977a149.18 149.18 0 0 0 149.181-149.127V512.755a149.18 149.18 0 0 0-149.18-149.181zM519.384 90.112a173.972 173.972 0 0 1 173.972 173.972v99.49h-347.89v-99.436A173.972 173.972 0 0 1 519.49 90.112m0-74.536a248.616 248.616 0 0 0-248.67 248.508v174.08H768v-174.08A248.616 248.616 0 0 0 519.437 15.522h-0.107 0.107z m0 783.09a37.241 37.241 0 0 1-37.295-37.295V612.19a37.241 37.241 0 0 1 74.537 0v149.126c0 20.588-16.708 37.295-37.242 37.295z" p-id="4004" fill="#dbdbdb"></path></svg>